<mxfile host="app.diagrams.net" modified="2021-03-12T05:28:26.841Z" agent="5.0 (Windows NT 10.0; Win64; x64) AppleWebKit/537.36 (KHTML, like Gecko) Chrome/87.0.4280.141 Safari/537.36 Edg/87.0.664.75" etag="u5aU3iQ0khmmGZXTwypy" version="14.4.7" type="github">
  <diagram id="V53q0ABg_NFxB4GgH6A1" name="Page-1">
    <mxGraphModel dx="1422" dy="804" grid="1" gridSize="10" guides="1" tooltips="1" connect="1" arrows="1" fold="1" page="1" pageScale="1" pageWidth="827" pageHeight="1169" math="0" shadow="0">
      <root>
        <mxCell id="0" />
        <mxCell id="1" parent="0" />
        <mxCell id="_yPaIhvcv03C6rhxQOYS-2" value="" style="rounded=0;whiteSpace=wrap;html=1;" vertex="1" parent="1">
          <mxGeometry x="200" y="120" width="170" height="140" as="geometry" />
        </mxCell>
        <mxCell id="_yPaIhvcv03C6rhxQOYS-13" style="edgeStyle=orthogonalEdgeStyle;curved=1;rounded=0;orthogonalLoop=1;jettySize=auto;html=1;exitX=0;exitY=0.5;exitDx=0;exitDy=0;entryX=0.5;entryY=0;entryDx=0;entryDy=0;entryPerimeter=0;" edge="1" parent="1" source="_yPaIhvcv03C6rhxQOYS-2" target="_yPaIhvcv03C6rhxQOYS-6">
          <mxGeometry relative="1" as="geometry" />
        </mxCell>
        <mxCell id="_yPaIhvcv03C6rhxQOYS-41" value="写出数据到磁盘" style="edgeLabel;html=1;align=center;verticalAlign=middle;resizable=0;points=[];" vertex="1" connectable="0" parent="_yPaIhvcv03C6rhxQOYS-13">
          <mxGeometry x="0.24" y="28" relative="1" as="geometry">
            <mxPoint as="offset" />
          </mxGeometry>
        </mxCell>
        <mxCell id="_yPaIhvcv03C6rhxQOYS-46" style="edgeStyle=orthogonalEdgeStyle;curved=1;rounded=0;orthogonalLoop=1;jettySize=auto;html=1;exitX=0.5;exitY=1;exitDx=0;exitDy=0;entryX=0;entryY=0.5;entryDx=0;entryDy=0;" edge="1" parent="1" source="_yPaIhvcv03C6rhxQOYS-3" target="_yPaIhvcv03C6rhxQOYS-17">
          <mxGeometry relative="1" as="geometry" />
        </mxCell>
        <mxCell id="_yPaIhvcv03C6rhxQOYS-47" value="请求读取块1" style="edgeLabel;html=1;align=center;verticalAlign=middle;resizable=0;points=[];" vertex="1" connectable="0" parent="_yPaIhvcv03C6rhxQOYS-46">
          <mxGeometry x="-0.2718" y="14" relative="1" as="geometry">
            <mxPoint as="offset" />
          </mxGeometry>
        </mxCell>
        <mxCell id="_yPaIhvcv03C6rhxQOYS-50" style="edgeStyle=orthogonalEdgeStyle;curved=1;rounded=0;orthogonalLoop=1;jettySize=auto;html=1;exitX=0.5;exitY=1;exitDx=0;exitDy=0;entryX=0.5;entryY=0;entryDx=0;entryDy=0;" edge="1" parent="1" source="_yPaIhvcv03C6rhxQOYS-3" target="_yPaIhvcv03C6rhxQOYS-19">
          <mxGeometry relative="1" as="geometry" />
        </mxCell>
        <mxCell id="_yPaIhvcv03C6rhxQOYS-51" value="请求读取块2" style="edgeLabel;html=1;align=center;verticalAlign=middle;resizable=0;points=[];" vertex="1" connectable="0" parent="_yPaIhvcv03C6rhxQOYS-50">
          <mxGeometry x="-0.0873" y="1" relative="1" as="geometry">
            <mxPoint as="offset" />
          </mxGeometry>
        </mxCell>
        <mxCell id="_yPaIhvcv03C6rhxQOYS-3" value="&lt;span style=&quot;color: rgb(50 , 50 , 50) ; font-size: 13px ; background-color: rgba(255 , 255 , 255 , 0.01)&quot;&gt;FSDataInputStream&lt;/span&gt;" style="ellipse;whiteSpace=wrap;html=1;" vertex="1" parent="1">
          <mxGeometry x="210" y="210" width="150" height="40" as="geometry" />
        </mxCell>
        <mxCell id="_yPaIhvcv03C6rhxQOYS-4" value="client" style="ellipse;whiteSpace=wrap;html=1;aspect=fixed;" vertex="1" parent="1">
          <mxGeometry x="210" y="140" width="60" height="60" as="geometry" />
        </mxCell>
        <mxCell id="_yPaIhvcv03C6rhxQOYS-16" style="edgeStyle=none;rounded=0;orthogonalLoop=1;jettySize=auto;html=1;exitX=1;exitY=0.25;exitDx=0;exitDy=0;entryX=0;entryY=0.25;entryDx=0;entryDy=0;" edge="1" parent="1" source="_yPaIhvcv03C6rhxQOYS-5" target="_yPaIhvcv03C6rhxQOYS-10">
          <mxGeometry relative="1" as="geometry" />
        </mxCell>
        <mxCell id="_yPaIhvcv03C6rhxQOYS-36" value="请求下载数据" style="edgeLabel;html=1;align=center;verticalAlign=middle;resizable=0;points=[];" vertex="1" connectable="0" parent="_yPaIhvcv03C6rhxQOYS-16">
          <mxGeometry x="-0.198" y="-1" relative="1" as="geometry">
            <mxPoint x="13.71" as="offset" />
          </mxGeometry>
        </mxCell>
        <mxCell id="_yPaIhvcv03C6rhxQOYS-5" value="&lt;span style=&quot;color: rgb(50 , 50 , 50) ; font-size: 13px ; background-color: rgba(255 , 255 , 255 , 0.01)&quot;&gt;Distributed FileSystem&lt;/span&gt;" style="rounded=1;whiteSpace=wrap;html=1;" vertex="1" parent="1">
          <mxGeometry x="280" y="135" width="80" height="70" as="geometry" />
        </mxCell>
        <mxCell id="_yPaIhvcv03C6rhxQOYS-6" value="" style="shape=cylinder3;whiteSpace=wrap;html=1;boundedLbl=1;backgroundOutline=1;size=15;" vertex="1" parent="1">
          <mxGeometry x="50" y="320" width="60" height="80" as="geometry" />
        </mxCell>
        <mxCell id="_yPaIhvcv03C6rhxQOYS-39" style="edgeStyle=none;rounded=0;orthogonalLoop=1;jettySize=auto;html=1;exitX=0;exitY=0.75;exitDx=0;exitDy=0;" edge="1" parent="1" source="_yPaIhvcv03C6rhxQOYS-10" target="_yPaIhvcv03C6rhxQOYS-5">
          <mxGeometry relative="1" as="geometry" />
        </mxCell>
        <mxCell id="_yPaIhvcv03C6rhxQOYS-40" value="响应目标文件元数据" style="edgeLabel;html=1;align=center;verticalAlign=middle;resizable=0;points=[];" vertex="1" connectable="0" parent="_yPaIhvcv03C6rhxQOYS-39">
          <mxGeometry x="0.1494" y="-2" relative="1" as="geometry">
            <mxPoint x="20.11" y="2.61" as="offset" />
          </mxGeometry>
        </mxCell>
        <mxCell id="_yPaIhvcv03C6rhxQOYS-10" value="NM" style="rounded=1;whiteSpace=wrap;html=1;" vertex="1" parent="1">
          <mxGeometry x="500" y="160" width="120" height="60" as="geometry" />
        </mxCell>
        <mxCell id="_yPaIhvcv03C6rhxQOYS-32" style="edgeStyle=none;rounded=0;orthogonalLoop=1;jettySize=auto;html=1;exitX=0.5;exitY=0;exitDx=0;exitDy=0;entryX=0.5;entryY=1;entryDx=0;entryDy=0;dashed=1;" edge="1" parent="1" source="_yPaIhvcv03C6rhxQOYS-17" target="_yPaIhvcv03C6rhxQOYS-10">
          <mxGeometry relative="1" as="geometry" />
        </mxCell>
        <mxCell id="_yPaIhvcv03C6rhxQOYS-17" value="DN" style="rounded=1;whiteSpace=wrap;html=1;" vertex="1" parent="1">
          <mxGeometry x="370" y="330" width="80" height="60" as="geometry" />
        </mxCell>
        <mxCell id="_yPaIhvcv03C6rhxQOYS-18" style="edgeStyle=none;rounded=0;orthogonalLoop=1;jettySize=auto;html=1;exitX=1;exitY=0.5;exitDx=0;exitDy=0;" edge="1" parent="1" source="_yPaIhvcv03C6rhxQOYS-17" target="_yPaIhvcv03C6rhxQOYS-17">
          <mxGeometry relative="1" as="geometry" />
        </mxCell>
        <mxCell id="_yPaIhvcv03C6rhxQOYS-30" style="edgeStyle=none;rounded=0;orthogonalLoop=1;jettySize=auto;html=1;exitX=0.5;exitY=0;exitDx=0;exitDy=0;entryX=0.5;entryY=1;entryDx=0;entryDy=0;dashed=1;" edge="1" parent="1" source="_yPaIhvcv03C6rhxQOYS-19" target="_yPaIhvcv03C6rhxQOYS-10">
          <mxGeometry relative="1" as="geometry" />
        </mxCell>
        <mxCell id="_yPaIhvcv03C6rhxQOYS-19" value="DN" style="rounded=1;whiteSpace=wrap;html=1;" vertex="1" parent="1">
          <mxGeometry x="520" y="330" width="80" height="60" as="geometry" />
        </mxCell>
        <mxCell id="_yPaIhvcv03C6rhxQOYS-33" style="edgeStyle=none;rounded=0;orthogonalLoop=1;jettySize=auto;html=1;exitX=0.5;exitY=0;exitDx=0;exitDy=0;entryX=0.5;entryY=1;entryDx=0;entryDy=0;dashed=1;" edge="1" parent="1" source="_yPaIhvcv03C6rhxQOYS-20" target="_yPaIhvcv03C6rhxQOYS-10">
          <mxGeometry relative="1" as="geometry" />
        </mxCell>
        <mxCell id="_yPaIhvcv03C6rhxQOYS-20" value="DN" style="rounded=1;whiteSpace=wrap;html=1;" vertex="1" parent="1">
          <mxGeometry x="670" y="330" width="80" height="60" as="geometry" />
        </mxCell>
        <mxCell id="_yPaIhvcv03C6rhxQOYS-26" value="&lt;span&gt;client: 负责切分数据,生成提交任务&lt;/span&gt;" style="shape=callout;whiteSpace=wrap;html=1;perimeter=calloutPerimeter;position2=1;base=20;" vertex="1" parent="1">
          <mxGeometry x="110" y="60" width="120" height="80" as="geometry" />
        </mxCell>
        <mxCell id="_yPaIhvcv03C6rhxQOYS-34" value="周期性提交自身节点资源信息给NM管理" style="text;html=1;strokeColor=none;fillColor=none;align=center;verticalAlign=middle;whiteSpace=wrap;rounded=0;" vertex="1" parent="1">
          <mxGeometry x="440" y="257" width="240" height="20" as="geometry" />
        </mxCell>
      </root>
    </mxGraphModel>
  </diagram>
</mxfile>
